<svg version="1.1" viewBox="0.0 0.0 960.0 540.0" fill="none" stroke="none" stroke-linecap="square" stroke-miterlimit="10" xmlns:xlink="http://www.w3.org/1999/xlink" xmlns="http://www.w3.org/2000/svg"><clipPath id="g1b94784292a_0_0.0"><path d="m0 0l960.0 0l0 540.0l-960.0 0l0 -540.0z" clip-rule="nonzero"/></clipPath><g clip-path="url(#g1b94784292a_0_0.0)"><path fill="#ffffff" d="m0 0l960.0 0l0 540.0l-960.0 0z" fill-rule="evenodd"/><path fill="#000000" fill-opacity="0.0" d="m196.74016 91.83465l136.88188 0l0 261.79526l-136.88188 0z" fill-rule="evenodd"/><path fill="#000000" d="m240.74016 295.4284q-11.203125 0 -18.8125 -6.796875q-7.59375 -6.796875 -10.5 -16.0q-2.890625 -9.203125 -2.890625 -20.000015q0 -13.0 4.59375 -29.09375q4.609375 -16.109375 12.5 -31.109375q7.90625 -15.0 20.609375 -25.09375q12.70311 -10.09375 26.906235 -10.09375q8.59375 0 14.6875 3.703125q6.109375 3.6875 9.296875 10.1875q3.203125 6.5 4.609375 13.5q1.40625 7.0 1.40625 15.0q0 10.40625 -2.8125 23.015625q-2.796875 12.59375 -8.296875 25.390625q-5.5 12.79689 -12.796875 23.406265q-7.296875 10.59375 -17.40625 17.296875q-10.093735 6.6875 -21.093735 6.6875zm38.593735 -117.593765q0 -14.796875 -8.1875 -14.796875q-9.8125 0 -17.51561 12.5q-7.6875 12.5 -11.484375 28.09375l-4.0 16.40625l36.79686 0q4.390625 -21.609375 4.390625 -42.203125zm-5.796875 49.203125l-36.79686 0q-4.40625 24.0 -4.40625 43.593765q0 19.0 10.203125 19.0q17.79686 0 27.60936 -46.39064l3.390625 -16.203125z" fill-rule="nonzero"/></g></svg>